<svg width="24" height="24" viewBox="0 0 24 24" fill="none" xmlns="http://www.w3.org/2000/svg">
<path d="M18.8572 15.4286L22.2857 14.5714L23.1429 18" stroke="#ECEDEE" stroke-linecap="round" stroke-linejoin="round"/>
<path d="M22.2858 14.5714C21.5244 16.729 20.1413 18.613 18.3109 19.9858C16.4805 21.3586 14.2846 22.1589 12.0001 22.2857C9.88831 22.2861 7.82757 21.6364 6.0978 20.425C4.36803 19.2135 3.05308 17.499 2.33154 15.5143" stroke="#ECEDEE" stroke-linecap="round" stroke-linejoin="round"/>
<path d="M5.14289 8.57143L1.71432 9.42857L0.857178 6" stroke="#ECEDEE" stroke-linecap="round" stroke-linejoin="round"/>
<path d="M1.71436 9.42852C3.15436 5.48566 7.57721 1.71423 12.0001 1.71423C14.1222 1.7202 16.1905 2.38239 17.9214 3.61002C19.6524 4.83766 20.9613 6.57064 21.6686 8.57138" stroke="#ECEDEE" stroke-linecap="round" stroke-linejoin="round"/>
</svg>
