<svg width="24" height="24" viewBox="0 0 24 24" fill="none" xmlns="http://www.w3.org/2000/svg">
<path d="M13.0001 14.1429C14.4203 14.1429 15.5716 12.9916 15.5716 11.5714C15.5716 10.1513 14.4203 9 13.0001 9C11.58 9 10.4287 10.1513 10.4287 11.5714C10.4287 12.9916 11.58 14.1429 13.0001 14.1429Z" stroke="#ECEDEE" stroke-linecap="round" stroke-linejoin="round"/>
<path d="M9 8L11 10" stroke="#ECEDEE" stroke-linecap="square" stroke-linejoin="round"/>
<path d="M4 14C5.10457 14 6 13.1046 6 12C6 10.8954 5.10457 10 4 10C2.89543 10 2 10.8954 2 12C2 13.1046 2.89543 14 4 14Z" stroke="#ECEDEE" stroke-linecap="round" stroke-linejoin="round"/>
<path d="M7 8C8.10457 8 9 7.10457 9 6C9 4.89543 8.10457 4 7 4C5.89543 4 5 4.89543 5 6C5 7.10457 5.89543 8 7 8Z" stroke="#ECEDEE" stroke-linecap="round" stroke-linejoin="round"/>
<path d="M13 22C14.1046 22 15 21.1046 15 20C15 18.8954 14.1046 18 13 18C11.8954 18 11 18.8954 11 20C11 21.1046 11.8954 22 13 22Z" stroke="#ECEDEE" stroke-linecap="round" stroke-linejoin="round"/>
<path d="M20 6C21.1046 6 22 5.10457 22 4C22 2.89543 21.1046 2 20 2C18.8954 2 18 2.89543 18 4C18 5.10457 18.8954 6 20 6Z" stroke="#ECEDEE" stroke-linecap="round" stroke-linejoin="round"/>
<path d="M6 12L10 12" stroke="#ECEDEE" stroke-linecap="square" stroke-linejoin="round"/>
<path d="M13 18L13 15" stroke="#ECEDEE" stroke-linecap="square" stroke-linejoin="round"/>
<path d="M15 9L18 6" stroke="#ECEDEE" stroke-linecap="square" stroke-linejoin="round"/>
</svg>
