<svg width="24" height="26" viewBox="0 0 24 26" fill="none" xmlns="http://www.w3.org/2000/svg">
<path d="M16.5 12.0769C16.5 13.301 16.0259 14.475 15.182 15.3405C14.3381 16.2061 13.1935 16.6923 12 16.6923C10.8065 16.6923 9.66193 16.2061 8.81802 15.3405C7.9741 14.475 7.5 13.301 7.5 12.0769V5.61539C7.5 4.39131 7.9741 3.21737 8.81802 2.35182C9.66193 1.48626 10.8065 1 12 1C13.1935 1 14.3381 1.48626 15.182 2.35182C16.0259 3.21737 16.5 4.39131 16.5 5.61539V12.0769Z" stroke="#ECEDEE" stroke-linecap="round" stroke-linejoin="round"/>
<path d="M21 13C21.0024 14.0917 20.7945 15.1731 20.3882 16.1821C19.982 17.1911 19.3855 18.1079 18.6328 18.8799C17.8802 19.6518 16.9863 20.2636 16.0025 20.6803C15.0187 21.0969 13.9644 21.3101 12.9 21.3077H11.1C10.0356 21.3101 8.98127 21.0969 7.99747 20.6803C7.01366 20.2636 6.11978 19.6518 5.36716 18.8799C4.61453 18.1079 4.01798 17.1911 3.61176 16.1821C3.20554 15.1731 2.99765 14.0917 3.00002 13V13" stroke="#ECEDEE" stroke-linecap="round" stroke-linejoin="round"/>
<path d="M12 21.3076V24.9999" stroke="#ECEDEE" stroke-linecap="round" stroke-linejoin="round"/>
</svg>
