<svg width="8" height="13" viewBox="0 0 8 13" fill="none" xmlns="http://www.w3.org/2000/svg">
<path d="M7.99805 6.56445C7.99805 6.70117 7.9707 6.83105 7.91602 6.9541C7.86589 7.07259 7.78385 7.18652 7.66992 7.2959L2.41309 12.4434C2.23535 12.6165 2.01888 12.7031 1.76367 12.7031C1.59961 12.7031 1.44694 12.6621 1.30566 12.5801C1.16439 12.498 1.05046 12.3887 0.963867 12.252C0.881836 12.1152 0.84082 11.9603 0.84082 11.7871C0.84082 11.5365 0.936523 11.3132 1.12793 11.1172L5.81055 6.56445L1.12793 2.01172C0.936523 1.82031 0.84082 1.59701 0.84082 1.3418C0.84082 1.17318 0.881836 1.02051 0.963867 0.883789C1.05046 0.742513 1.16439 0.630859 1.30566 0.548828C1.44694 0.466797 1.59961 0.425781 1.76367 0.425781C2.01888 0.425781 2.23535 0.51237 2.41309 0.685547L7.66992 5.83301C7.7793 5.94238 7.86133 6.05632 7.91602 6.1748C7.9707 6.29329 7.99805 6.42318 7.99805 6.56445Z" fill="#ECEDEE"/>
</svg>
