<svg width="24" height="24" viewBox="0 0 24 24" fill="none" xmlns="http://www.w3.org/2000/svg">
<path d="M2.39241 9.1617C2.39241 8.77393 2.0807 8.45957 1.6962 8.45957C1.3117 8.45957 1 8.77393 1 9.1617V16.8383C1 17.2261 1.3117 17.5404 1.6962 17.5404C2.0807 17.5404 2.39241 17.2261 2.39241 16.8383V9.1617Z" fill="#ECEDEE"/>
<path d="M5.827 10.8468C5.827 10.459 5.5153 10.1447 5.1308 10.1447C4.7463 10.1447 4.4346 10.459 4.4346 10.8468V15.1532C4.4346 15.541 4.7463 15.8553 5.1308 15.8553C5.5153 15.8553 5.827 15.541 5.827 15.1532V10.8468Z" fill="#ECEDEE"/>
<path d="M9.2616 6.82128C9.2616 6.4335 8.9499 6.11915 8.5654 6.11915C8.1809 6.11915 7.8692 6.4335 7.8692 6.82128V19.1787C7.8692 19.5665 8.1809 19.8808 8.5654 19.8808C8.9499 19.8808 9.2616 19.5665 9.2616 19.1787V6.82128Z" fill="#ECEDEE"/>
<path d="M12.6962 2.70213C12.6962 2.31435 12.3845 2 12 2C11.6155 2 11.3038 2.31435 11.3038 2.70213V23.2979C11.3038 23.6856 11.6155 24 12 24C12.3845 24 12.6962 23.6856 12.6962 23.2979V2.70213Z" fill="#ECEDEE"/>
<path d="M16.1308 6.54043C16.1308 6.15265 15.8191 5.8383 15.4346 5.8383C15.0501 5.8383 14.7384 6.15265 14.7384 6.54043V19.4596C14.7384 19.8473 15.0501 20.1617 15.4346 20.1617C15.8191 20.1617 16.1308 19.8473 16.1308 19.4596V6.54043Z" fill="#ECEDEE"/>
<path d="M19.5654 4.7617C19.5654 4.37393 19.2537 4.05957 18.8692 4.05957C18.4847 4.05957 18.173 4.37393 18.173 4.7617V13V21.2383C18.173 21.6261 18.4847 21.9404 18.8692 21.9404C19.2537 21.9404 19.5654 21.6261 19.5654 21.2383V4.7617Z" fill="#ECEDEE"/>
<path d="M23 9.1617C23 8.77393 22.6883 8.45957 22.3038 8.45957C21.9193 8.45957 21.6076 8.77393 21.6076 9.1617V16.8383C21.6076 17.2261 21.9193 17.5404 22.3038 17.5404C22.6883 17.5404 23 17.2261 23 16.8383V9.1617Z" fill="#ECEDEE"/>
</svg>
