<svg width="19" height="19" viewBox="0 0 19 19" fill="none" xmlns="http://www.w3.org/2000/svg">
<g id="travel-map-location-pin--navigation-map-maps-pin-gps-location" clip-path="url(#clip0_4841_1509)">
<g id="Group">
<path id="Vector" d="M15.1711 6.74128C15.1711 9.94271 9.38538 17.6699 9.38538 17.6699C9.38538 17.6699 3.59967 9.94271 3.59967 6.74128C3.59967 5.20681 4.20923 3.73519 5.29427 2.65016C6.3793 1.56513 7.85092 0.955566 9.38538 0.955566C10.9199 0.955566 12.3915 1.56513 13.4765 2.65016C14.5615 3.73519 15.1711 5.20681 15.1711 6.74128V6.74128Z" stroke="#787F85" stroke-linecap="round" stroke-linejoin="round"/>
<path id="Vector_2" d="M9.38536 8.66964C10.4505 8.66964 11.3139 7.80619 11.3139 6.74107C11.3139 5.67595 10.4505 4.8125 9.38536 4.8125C8.32024 4.8125 7.45679 5.67595 7.45679 6.74107C7.45679 7.80619 8.32024 8.66964 9.38536 8.66964Z" stroke="#787F85" stroke-linecap="round" stroke-linejoin="round"/>
</g>
</g>
<defs>
<clipPath id="clip0_4841_1509">
<rect width="18" height="18" fill="white" transform="translate(0.385376 0.3125)"/>
</clipPath>
</defs>
</svg>
