<svg width="28" height="28" viewBox="0 0 28 28" fill="none" xmlns="http://www.w3.org/2000/svg">
<g id="interface-delete-bin-2--remove-delete-empty-bin-trash-garbage">
<g id="Group">
<path id="Vector" d="M2.33337 7.1665H26.3334" stroke="#ECEDEE" stroke-linecap="round" stroke-linejoin="round"/>
<path id="Vector_2" d="M5.33337 7.1665H23.3334V25.1665C23.3334 25.6969 23.1227 26.2056 22.7476 26.5807C22.3725 26.9558 21.8638 27.1665 21.3334 27.1665H7.33337C6.80294 27.1665 6.29423 26.9558 5.91916 26.5807C5.54409 26.2056 5.33337 25.6969 5.33337 25.1665V7.1665Z" stroke="#ECEDEE" stroke-linecap="round" stroke-linejoin="round"/>
<path id="Vector_3" d="M9.33337 7.1665V6.1665C9.33337 4.84042 9.86016 3.56865 10.7978 2.63097C11.7355 1.69329 13.0073 1.1665 14.3334 1.1665C15.6595 1.1665 16.9312 1.69329 17.8689 2.63097C18.8066 3.56865 19.3334 4.84042 19.3334 6.1665V7.1665" stroke="#ECEDEE" stroke-linecap="round" stroke-linejoin="round"/>
<path id="Vector_4" d="M11.3334 11.1665V22.1665" stroke="#ECEDEE" stroke-linecap="round" stroke-linejoin="round"/>
<path id="Vector_5" d="M17.3334 11.1665V22.1665" stroke="#ECEDEE" stroke-linecap="round" stroke-linejoin="round"/>
</g>
</g>
</svg>
