<svg width="14" height="4" viewBox="0 0 14 4" fill="none" xmlns="http://www.w3.org/2000/svg">
<g id="Group">
<path id="Vector" d="M11.583 3.375C12.3424 3.375 12.958 2.75939 12.958 2C12.958 1.24061 12.3424 0.625 11.583 0.625C10.8236 0.625 10.208 1.24061 10.208 2C10.208 2.75939 10.8236 3.375 11.583 3.375Z" stroke="#ECEDEE" stroke-linecap="round" stroke-linejoin="round"/>
<path id="Vector_2" d="M7 3.375C7.75939 3.375 8.375 2.75939 8.375 2C8.375 1.24061 7.75939 0.625 7 0.625C6.24061 0.625 5.625 1.24061 5.625 2C5.625 2.75939 6.24061 3.375 7 3.375Z" stroke="#ECEDEE" stroke-linecap="round" stroke-linejoin="round"/>
<path id="Vector_3" d="M2.4165 3.375C3.1759 3.375 3.7915 2.75939 3.7915 2C3.7915 1.24061 3.1759 0.625 2.4165 0.625C1.65711 0.625 1.0415 1.24061 1.0415 2C1.0415 2.75939 1.65711 3.375 2.4165 3.375Z" stroke="#ECEDEE" stroke-linecap="round" stroke-linejoin="round"/>
</g>
</svg>
