<?xml version="1.0" encoding="utf-8"?>
<!-- Generator: Adobe Illustrator 28.3.0, SVG Export Plug-In . SVG Version: 6.00 Build 0)  -->
<svg version="1.1" id="Layer_1" xmlns="http://www.w3.org/2000/svg" xmlns:xlink="http://www.w3.org/1999/xlink" x="0px" y="0px"
	 viewBox="0 0 73 72.7" style="enable-background:new 0 0 73 72.7;" xml:space="preserve">
<style type="text/css">
	.st0{fill:none;stroke:#8FCAFC;stroke-width:3;stroke-linecap:round;stroke-linejoin:round;}
</style>
<g id="Speak_Nav">
	<g id="Speak_Button">
		<g id="Group">
			<path id="Vector" class="st0" d="M43.4,35.6c0,1.8-0.7,3.6-2,4.8c-1.3,1.3-3,2-4.8,2s-3.6-0.7-4.8-2c-1.3-1.3-2-3-2-4.8V26
				c0-1.8,0.7-3.6,2-4.8c1.3-1.3,3-2,4.8-2s3.6,0.7,4.8,2c1.3,1.3,2,3,2,4.8V35.6z"/>
			<path id="Vector_2" class="st0" d="M50.2,37c0,1.6-0.3,3.2-0.9,4.7c-0.6,1.5-1.5,2.9-2.7,4c-1.1,1.1-2.5,2-4,2.7
				c-1.5,0.6-3.1,0.9-4.7,0.9h-2.7c-1.6,0-3.2-0.3-4.7-0.9c-1.5-0.6-2.9-1.5-4-2.7c-1.1-1.1-2-2.5-2.7-4c-0.6-1.5-0.9-3.1-0.9-4.7
				l0,0"/>
			<path id="Vector_3" class="st0" d="M36.5,49.3v5.5"/>
		</g>
	</g>
</g>
</svg>
