<svg width="20" height="20" viewBox="0 0 20 20" fill="none" xmlns="http://www.w3.org/2000/svg">
<g id="interface-edit-write-2--change-document-edit-modify-paper-pencil-write-writing" clip-path="url(#clip0_5001_2394)">
<g id="Group">
<path id="Vector" d="M10.7142 12.8572L6.42847 13.6286L7.14275 9.28577L15.3285 1.12862C15.4613 0.994726 15.6193 0.888448 15.7934 0.815922C15.9674 0.743395 16.1542 0.706055 16.3428 0.706055C16.5313 0.706055 16.7181 0.743395 16.8921 0.815922C17.0662 0.888448 17.2242 0.994726 17.357 1.12862L18.8713 2.64291C19.0052 2.77571 19.1115 2.93372 19.184 3.1078C19.2566 3.28188 19.2939 3.46861 19.2939 3.6572C19.2939 3.84578 19.2566 4.03251 19.184 4.20659C19.1115 4.38067 19.0052 4.53868 18.8713 4.67148L10.7142 12.8572Z" stroke="#ECEDEE" stroke-linecap="round" stroke-linejoin="round"/>
<path id="Vector_2" d="M17.1428 13.5717V17.8574C17.1428 18.2363 16.9923 18.5997 16.7244 18.8676C16.4565 19.1355 16.0931 19.286 15.7142 19.286H2.1428C1.76392 19.286 1.40056 19.1355 1.13265 18.8676C0.864743 18.5997 0.714233 18.2363 0.714233 17.8574V4.28599C0.714233 3.90711 0.864743 3.54375 1.13265 3.27584C1.40056 3.00793 1.76392 2.85742 2.1428 2.85742H6.42852" stroke="#ECEDEE" stroke-linecap="round" stroke-linejoin="round"/>
</g>
</g>
<defs>
<clipPath id="clip0_5001_2394">
<rect width="20" height="20" fill="white"/>
</clipPath>
</defs>
</svg>
