<svg width="26" height="24" viewBox="0 0 26 24" fill="none" xmlns="http://www.w3.org/2000/svg">
<path d="M9.30765 9.30769C11.6018 9.30769 13.4615 7.44795 13.4615 5.15385C13.4615 2.85974 11.6018 1 9.30765 1C7.01355 1 5.15381 2.85974 5.15381 5.15385C5.15381 7.44795 7.01355 9.30769 9.30765 9.30769Z" stroke="#ECEDEE" stroke-linecap="round" stroke-linejoin="round"/>
<path d="M17.6154 23.1538H1V21.3077C1 19.1044 1.87527 16.9913 3.43327 15.4333C4.99126 13.8753 7.10436 13 9.30769 13C11.511 13 13.6241 13.8753 15.1821 15.4333C16.7401 16.9913 17.6154 19.1044 17.6154 21.3077V23.1538Z" stroke="#ECEDEE" stroke-linecap="round" stroke-linejoin="round"/>
<path d="M16.6924 1C17.7941 1 18.8506 1.43764 19.6296 2.21663C20.4086 2.99563 20.8462 4.05218 20.8462 5.15385C20.8462 6.25551 20.4086 7.31206 19.6296 8.09106C18.8506 8.87006 17.7941 9.30769 16.6924 9.30769" stroke="#ECEDEE" stroke-linecap="round" stroke-linejoin="round"/>
<path d="M19.646 13.3508C21.2186 13.9491 22.5725 15.0107 23.5285 16.3953C24.4845 17.7799 24.9976 19.4221 24.9998 21.1047V23.1539H22.2306" stroke="#ECEDEE" stroke-linecap="round" stroke-linejoin="round"/>
</svg>
