<svg width="25" height="25" viewBox="0 0 25 25" fill="none" xmlns="http://www.w3.org/2000/svg">
<path d="M13.3313 12.3208C13.0689 12.4348 12.7859 12.4936 12.4998 12.4936C12.2137 12.4936 11.9307 12.4348 11.6683 12.3208L1.58365 7.64925C1.41989 7.56664 1.28227 7.44018 1.18612 7.28397C1.08997 7.12776 1.03906 6.94792 1.03906 6.76448C1.03906 6.58104 1.08997 6.4012 1.18612 6.24499C1.28227 6.08878 1.41989 5.96233 1.58365 5.87972L11.6683 1.17278C11.9307 1.05881 12.2137 1 12.4998 1C12.7859 1 13.0689 1.05881 13.3313 1.17278L23.416 5.84433C23.5797 5.92694 23.7173 6.05339 23.8135 6.2096C23.9096 6.36581 23.9605 6.54565 23.9605 6.72909C23.9605 6.91253 23.9096 7.09237 23.8135 7.24858C23.7173 7.40479 23.5797 7.53125 23.416 7.61386L13.3313 12.3208Z" stroke="#ECEDEE" stroke-linecap="round" stroke-linejoin="round"/>
<path d="M24 13.1172L13.2077 18.0896C12.9772 18.1947 12.7268 18.2491 12.4735 18.2491C12.2201 18.2491 11.9697 18.1947 11.7392 18.0896L1 13.1172" stroke="#ECEDEE" stroke-linecap="round" stroke-linejoin="round"/>
<path d="M24 18.8679L13.2077 23.8403C12.9772 23.9454 12.7268 23.9999 12.4735 23.9999C12.2201 23.9999 11.9697 23.9454 11.7392 23.8403L1 18.8679" stroke="#ECEDEE" stroke-linecap="round" stroke-linejoin="round"/>
</svg>
